PathFileType	3	(X/Y/Z)	D:\minhoCalibration\240510\subject1_KPNP\preferred\preferred03.trc
DataRate	CameraRate	NumFrames	NumMarkers	Units	OrigDataRate	OrigDataStartFrame	OrigNumFrames
200.0	200.0	15	10	mm	200.0	322	196	
Frame#	Time	Left_Ankle_Outer1			Left_Ankle_Inner1			Left_Knee_Outer1			Left_Knee_Inner1			Left_Wrist1			Right_Wrist1			Right_Knee_Inner1			Right_Knee_Outer1			Right_Ankle_Inner1			Right_Ankle_Outer1			
		X1	Y1	Z1	X2	Y2	Z2	X3	Y3	Z3	X4	Y4	Z4	X5	Y5	Z5	X6	Y6	Z6	X7	Y7	Z7	X8	Y8	Z8	X9	Y9	Z9	X10	Y10	Z10	
322	1.6	-500.94568	150.33055	-541.3136	-542.39264	159.66663	-504.16946	-350.09348	562.15302	-405.90005	-452.21576	541.69958	-369.66641	-353.76602	1011.8616	-581.51874	-653.92328	1140.3553	-420.10696	-371.51614	904.90472	-89.241287	-471.00558	954.41107	-50.13702	-511.51056	544.68121	139.52525	-590.05878	575.08484	183.09798
323	1.605	-502.36172	149.01964	-542.24792	-543.87408	158.36661	-505.16916	-350.62109	560.77118	-406.94696	-452.642	540.32336	-370.98575	-352.29779	1011.5037	-579.31824	-655.7229	1136.2731	-421.02505	-378.0509	896.19421	-88.053986	-479.44308	942.85059	-50.518425	-516.37366	527.19855	124.97842	-597.30902	554.21564	166.85616
324	1.61	-503.8179	147.74995	-543.0072	-545.15112	156.64032	-505.5874	-350.97433	559.26727	-408.12982	-453.29446	539.00745	-372.14963	-350.87943	1011.0356	-577.10138	-657.36108	1131.6526	-422.22034	-384.63351	887.25568	-87.350029	-487.82739	931.08319	-51.366516	-521.62567	509.76718	110.21172	-604.21527	533.57336	149.59464
325	1.615	-505.34903	146.68016	-544.17889	-546.5766	155.50674	-506.17688	-351.38675	557.776	-409.27539	-454.34491	537.66229	-373.35358	-349.39008	1010.4663	-575.01147	-658.99939	1126.7012	-423.72668	-391.11395	878.36273	-87.228821	-496.31955	919.33105	-52.615639	-526.77954	492.69632	94.872429	-611.34186	513.86737	131.76601
326	1.62	-507.21692	145.23151	-544.8924	-548.49335	154.20491	-506.97772	-351.70798	556.15686	-410.41141	-454.83728	536.27112	-373.94177	-348.10434	1009.8113	-572.8114	-660.95111	1122.0145	-424.75763	-397.82245	869.45233	-87.569351	-504.71295	907.50092	-54.528667	-531.76642	476.25293	78.855591	-618.05695	494.285	113.01273
327	1.625	-509.03995	143.91678	-545.50018	-550.96124	152.59969	-507.87491	-351.99173	554.39502	-411.45239	-454.91354	534.64148	-375.06686	-346.68173	1009.1313	-570.75201	-662.57672	1117.1002	-426.22415	-404.84833	860.44391	-88.378113	-513.01953	895.62506	-57.04969	-536.83508	460.43756	62.485569	-624.80426	475.60565	93.77005
328	1.63	-510.9061	142.59431	-546.14636	-551.79663	151.7256	-507.72177	-352.3721	552.60492	-412.35312	-455.21808	533.07996	-375.73712	-345.51422	1008.3592	-568.67566	-663.90967	1111.9498	-428.03125	-412.04611	851.30585	-89.733444	-521.24615	883.79504	-60.217175	-541.61249	444.93439	45.279678	-631.42914	457.59695	73.992058
329	1.635	-512.73877	141.27252	-546.66565	-554.31555	150.29863	-508.74197	-352.4917	550.78253	-413.18503	-455.54205	531.86414	-375.95587	-344.33209	1007.5288	-566.75397	-665.59363	1106.9935	-429.48117	-419.26028	842.06775	-91.451332	-529.77594	872.35278	-63.67421	-547.16199	429.60767	28.290226	-637.922	440.38684	53.615456
330	1.64	-514.45166	140.00029	-547.20721	-556.19824	149.05919	-509.35983	-352.74823	548.87146	-413.77335	-455.96494	529.8017	-376.51807	-343.21988	1006.6539	-564.88574	-666.96838	1102.0698	-431.3262	-426.44785	832.69885	-93.499237	-537.95782	860.87274	-67.405281	-552.5531	415.40677	10.716422	-644.36182	423.97977	32.75655
331	1.645	-516.04578	138.57713	-547.64807	-556.99121	147.45413	-509.17416	-352.90259	547.07556	-414.19983	-455.84933	528.15344	-377.01175	-342.14359	1005.7217	-563.03754	-668.13068	1097.0895	-433.37341	-433.63593	823.09558	-95.786789	-545.87183	849.3725	-72.319725	-557.59003	401.26852	-7.517427	-650.62677	408.35635	11.450747
332	1.65	-517.59845	137.01877	-547.74402	-558.94366	146.51102	-510.0155	-353.07901	545.24438	-414.43417	-456.20349	526.65955	-376.90344	-341.22488	1004.6524	-561.23083	-669.29694	1092.2716	-435.58029	-440.77927	813.31702	-98.285149	-553.94348	837.97998	-77.276588	-563.13959	387.7663	-25.788668	-656.89166	393.48053	-10.145551
333	1.655	-518.56366	135.9279	-548.54132	-560.03192	145.16402	-510.44019	-353.03329	543.28821	-414.35739	-456.11624	524.84723	-377.26859	-340.50232	1003.3726	-559.44446	-669.96576	1087.5585	-438.24249	-447.9473	803.45428	-100.89764	-562.11658	826.47485	-82.353226	-567.9964	375.14279	-44.957539	-662.82385	379.57974	-31.534664
334	1.66	-519.41547	134.62196	-549.12048	-561.12488	143.92917	-511.08926	-353.32233	541.54089	-414.3121	-456.28046	523.19788	-377.14072	-339.84897	1002.0688	-557.72009	-670.88281	1083.0459	-440.776	-455.01215	793.44098	-103.85635	-569.8952	815.08221	-87.963394	-573.89856	362.70554	-63.909821	-668.63232	366.39771	-53.59111
335	1.665	-520.17255	133.19083	-549.35034	-561.62592	143.23782	-512.14581	-353.51224	539.80707	-413.89627	-456.77499	521.74341	-376.70111	-339.24643	1000.7622	-556.01752	-671.92822	1078.5262	-443.29361	-462.0239	783.40454	-106.92756	-577.64203	803.59473	-93.783745	-579.75281	350.22791	-83.659195	-674.67102	353.948	-75.98391
336	1.67	-520.31378	132.13686	-550.15436	-562.3653	142.16705	-513.40784	-353.58923	538.12512	-413.37064	-456.72772	519.98773	-376.89822	-338.71149	999.3197	-554.36554	-672.6095	1074.2241	-446.10901	-469.03842	773.27283	-110.29871	-585.10248	792.54193	-99.786987	-584.99103	339.53036	-103.49065	-680.25543	342.32672	-98.536087
